#!OML:ASF H:\Pregnant\Project 1\Capture day 1\Session 1\femalepreg.ASF
:FULLY-SPECIFIED
:DEGREES
565
root 4.91128 15.5895 13.3081 21.7899 0.530136 1.42731
lowerback -8.42817 -1.42546 -8.70283
upperback -4.74093 -1.27065 -0.669642
thorax -0.0630498 -0.486074 4.08195
lowerneck -26.3315 -7.09063 -3.83703
upperneck 11.6042 -10.1111 10.0468
head 8.61711 -3.86358 2.52905
rclavicle -4.57205e-015 2.38542e-015
rhumerus -28.4767 4.88288 -80.1927
rradius 28.6927
rwrist -4.3689
rhand -17.0403 -15.6551
rfingers 7.12502
rthumb 9.19646 -45.4346
lclavicle -4.57205e-015 2.38542e-015
lhumerus -31.9165 -6.97846 82.419
lradius 31.4368
lwrist 35.3718
lhand -24.5595 -3.21777
lfingers 7.12502
lthumb 1.93698 26.7532
rfemur -29.1349 5.41961 -1.48416
rtibia 31.7391
rfoot -6.32676 -27.3732
rtoes -24.5433
lfemur -30.643 -0.996291 -18.0042
ltibia 22.3913
lfoot -7.33295 7.78697
ltoes -20.3107
566
root 4.97323 15.5981 13.3034 22.0019 0.448648 1.51781
lowerback -8.33933 -1.40714 -9.00054
upperback -4.72874 -1.23374 -0.701899
thorax -0.10264 -0.461244 4.21938
lowerneck -26.3756 -7.20214 -3.97247
upperneck 11.3238 -10.233 10.2931
head 8.56082 -3.909 2.61415
rclavicle -9.83984e-015 9.54166e-015
rhumerus -28.2542 4.05339 -79.8421
rradius 28.8249
rwrist -4.73864
rhand -17.167 -15.7717
rfingers 7.12502
rthumb 9.07418 -45.5565
lclavicle -9.83984e-015 9.54166e-015
lhumerus -31.771 -6.92693 82.5494
lradius 31.4041
lwrist 35.4108
lhand -24.6768 -3.26739
lfingers 7.12502
lthumb 1.82373 26.7046
rfemur -29.6453 5.13079 -1.84741
rtibia 32.1107
rfoot -5.87814 -27.1303
rtoes -24.2386
lfemur -30.7323 -0.904525 -18.4083
ltibia 22.0992
lfoot -7.22463 7.63335
ltoes -20.1934
567
root 5.03539 15.6076 13.2974 22.2232 0.337048 1.56776
lowerback -8.24279 -1.38119 -9.26382
upperback -4.73012 -1.19149 -0.725942
thorax -0.16208 -0.432933 4.34666
lowerneck -26.413 -7.31082 -4.11686
upperneck 11.0525 -10.3525 10.5603
head 8.50912 -3.95151 2.70808
rclavicle -1.09332e-015 -1.51076e-014
rhumerus -28.0388 3.26085 -79.5331
rradius 28.9603
rwrist -5.09647
rhand -17.2712 -15.8982
rfingers 7.12502
rthumb 8.97366 -45.6873
lclavicle -1.09332e-015 -1.51076e-014
lhumerus -31.645 -6.87417 82.6749
lradius 31.3538
lwrist 35.4591
lhand -24.7935 -3.32993
lfingers 7.12502
lthumb 1.71105 26.643
rfemur -30.1855 4.91301 -2.18151
rtibia 32.4572
rfoot -5.4088 -26.9446
rtoes -23.8434
lfemur -30.8387 -0.79768 -18.7709
ltibia 21.8178
lfoot -7.11789 7.50358
ltoes -20.0319
568
root 5.09755 15.6179 13.2903 22.4574 0.198977 1.57762
lowerback -8.1568 -1.34785 -9.49187
upperback -4.73832 -1.14175 -0.743215
thorax -0.224521 -0.40097 4.46171
lowerneck -26.4545 -7.41873 -4.25994
upperneck 10.7916 -10.4734 10.8368
head 8.46313 -3.99328 2.80443
rclavicle 3.18055e-015 -1.98785e-014
rhumerus -27.821 2.5079 -79.2679
rradius 29.1016
rwrist -5.44114
rhand -17.3751 -16.0448
rfingers 7.12502
rthumb 8.87337 -45.8382
lclavicle 3.18055e-015 -1.98785e-014
lhumerus -31.5254 -6.82922 82.7955
lradius 31.2857
lwrist 35.5169
lhand -24.9048 -3.38105
lfingers 7.12502
lthumb 1.60346 26.5927
rfemur -30.7517 4.7609 -2.4838
rtibia 32.7735
rfoot -4.91882 -26.8236
rtoes -23.3659
lfemur -30.9736 -0.679373 -19.091
ltibia 21.5634
lfoot -7.01785 7.40646
ltoes -19.8681
569
root 5.15976 15.6292 13.2829 22.7037 0.0342824 1.54312
lowerback -8.08907 -1.30686 -9.68074
upperback -4.75364 -1.08339 -0.750975
thorax -0.286164 -0.364999 4.56517
lowerneck -26.49 -7.52462 -4.39156
upperneck 10.5399 -10.594 11.1036
head 8.41874 -4.03553 2.89564
rclavicle -1.49089e-015 -6.36111e-015
rhumerus -27.6099 1.80351 -79.0457
rradius 29.2564
rwrist -5.76744
rhand -17.4961 -16.2073
rfingers 7.12502
rthumb 8.75663 -46.0057
lclavicle -1.49089e-015 -6.36111e-015
lhumerus -31.4175 -6.79185 82.9134
lradius 31.2015
lwrist 35.5842
lhand -25.0137 -3.42299
lfingers 7.12502
lthumb 1.49836 26.5515
rfemur -31.3403 4.67302 -2.74865
rtibia 33.0573
rfoot -4.40692 -26.7681
rtoes -22.8073
lfemur -31.137 -0.556706 -19.3606
ltibia 21.3437
lfoot -6.93019 7.34422
ltoes -19.6312
570
root 5.22182 15.6412 13.2755 22.9611 -0.160199 1.46623
lowerback -8.05013 -1.25779 -9.83364
upperback -4.77176 -1.01385 -0.749944
thorax -0.336953 -0.324316 4.65817
lowerneck -26.5306 -7.62889 -4.5274
upperneck 10.3054 -10.7128 11.3747
head 8.38222 -4.07604 2.98899
rclavicle -9.44227e-015 1.11319e-014
rhumerus -27.4063 1.14617 -78.8672
rradius 29.4268
rwrist -6.06062
rhand -17.641 -16.3805
rfingers 7.12502
rthumb 8.61684 -46.1847
lclavicle -9.44227e-015 1.11319e-014
lhumerus -31.3108 -6.76747 83.03
lradius 31.0909
lwrist 35.6638
lhand -25.1215 -3.46888
lfingers 7.12502
lthumb 1.39419 26.5063
rfemur -31.951 4.64712 -2.97633
rtibia 33.3118
rfoot -3.87779 -26.7798
rtoes -22.1508
lfemur -31.3254 -0.427343 -19.5829
ltibia 21.1608
lfoot -6.8547 7.32292
ltoes -19.3585
571
root 5.28353 15.6538 13.2682 23.2319 -0.381247 1.35555
lowerback -8.03761 -1.20327 -9.96163
upperback -4.79825 -0.936319 -0.739887
thorax -0.383565 -0.279835 4.74699
lowerneck -26.5654 -7.72922 -4.65973
upperneck 10.0881 -10.827 11.6357
head 8.34999 -4.11502 3.079
rclavicle 9.93923e-017 1.90833e-014
rhumerus -27.2199 0.546188 -78.7289
rradius 29.6196
rwrist -6.31163
rhand -17.767 -16.5864
rfingers 7.12502
rthumb 8.4952 -46.3956
lclavicle 9.93923e-017 1.90833e-014
lhumerus -31.2147 -6.75371 83.1475
lradius 30.9556
lwrist 35.7482
lhand -25.2225 -3.49967
lfingers 7.12502
lthumb 1.29663 26.4761
rfemur -32.5862 4.67294 -3.17262
rtibia 33.5413
rfoot -3.3294 -26.8591
rtoes -21.387
lfemur -31.5388 -0.299598 -19.7645
ltibia 21.0107
lfoot -6.78743 7.34212
ltoes -19.0519
